<svg xmlns="http://www.w3.org/2000/svg" width="40" height="40" viewBox="0 0 40 38"><style>.shp0{fill:#ebebeb}</style><g><path d="M24,16v-12h-6v12h-12v6h12v12h6v-12h12v-6z" class="shp0"/><path d="M-134 2L-166 2C-168.21 2 -170 3.79 -170 6L-170 42L-160 34L-134 34C-131.79 34 -130 32.21 -130 30L-130 6C-130 3.79 -131.79 2 -134 2ZM-138 26L-162 26L-162 22L-138 22L-138 26ZM-138 20L-162 20L-162 16L-138 16L-138 20ZM-138 14L-162 14L-162 10L-138 10L-138 14Z" class="shp0"/><path d="M181,35c5,-7 12,-10.2 22,-10.2v8.2l14,-14l-14,-14v8c-14,2 -20,12 -22,22z" class="shp0"/><path d="M-329 12L-335 12L-335 20L-343 20L-343 26L-335 26L-335 34L-329 34L-329 26L-321 26L-321 20L-329 20L-329 12ZM-313.52 4C-314.29 7.84 -318.65 10.46 -323 10.6L-323 14L-315 14L-315 34L-309 34L-309 4L-313.52 4Z" class="shp0"/></g></svg>