<svg xmlns="http://www.w3.org/2000/svg" width="40" height="40" viewBox="0 0 46 43"><style>.shp0{fill:#ebebeb}</style><g><path d="M198,18v-12h-6v12h-12v6h12v12h6v-12h12v-6z" class="shp0"/><path d="M40 4L8 4C5.79 4 4 5.79 4 8L4 44L14 36L40 36C42.21 36 44 34.21 44 32L44 8C44 5.79 42.21 4 40 4ZM36 28L12 28L12 24L36 24L36 28ZM36 22L12 22L12 18L36 18L36 22ZM36 16L12 16L12 12L36 12L36 16Z" class="shp0"/><path d="M355,37c5,-7 12,-10.2 22,-10.2v8.2l14,-14l-14,-14v8c-14,2 -20,12 -22,22z" class="shp0"/><path d="M-155 14L-161 14L-161 22L-169 22L-169 28L-161 28L-161 36L-155 36L-155 28L-147 28L-147 22L-155 22L-155 14ZM-139.52 6C-140.29 9.84 -144.65 12.46 -149 12.6L-149 16L-141 16L-141 36L-135 36L-135 6L-139.52 6Z" class="shp0"/></g></svg>