<svg xmlns="http://www.w3.org/2000/svg" viewBox="0 0 41 40" width="40" height="40"><style>tspan { white-space:pre }.shp0 { fill: #ebebeb } </style><g ><path class="shp0" d="M370,16v-12h-6v12h-12v6h12v12h6v-12h12v-6z" /><path class="shp0" d="M212 2L180 2C177.79 2 176 3.79 176 6L176 42L186 34L212 34C214.21 34 216 32.21 216 30L216 6C216 3.79 214.21 2 212 2ZM208 26L184 26L184 22L208 22L208 26ZM208 20L184 20L184 16L208 16L208 20ZM208 14L184 14L184 10L208 10L208 14Z" /><path class="shp0" d="M527,35c5,-7 12,-10.2 22,-10.2v8.2l14,-14l-14,-14v8c-14,2 -20,12 -22,22z" /><path class="shp0" d="M17 12L11 12L11 20L3 20L3 26L11 26L11 34L17 34L17 26L25 26L25 20L17 20L17 12ZM32.48 4C31.71 7.84 27.35 10.46 23 10.6L23 14L31 14L31 34L37 34L37 4L32.48 4Z" /></g></svg>